<?xml version="1.0" standalone="no"?>
<!DOCTYPE svg PUBLIC "-//W3C//DTD SVG 20010904//EN"
 "http://www.w3.org/TR/2001/REC-SVG-20010904/DTD/svg10.dtd">
<svg version="1.0" xmlns="http://www.w3.org/2000/svg"
 width="700.000000pt" height="700.000000pt" viewBox="0 0 700.000000 700.000000"
 preserveAspectRatio="xMidYMid meet">
<metadata>
Created by potrace 1.11, written by Peter Selinger 2001-2013
</metadata>
<g transform="translate(0.000000,700.000000) scale(0.100000,-0.100000)"
fill="#000000" stroke="none">
<path d="M3279 6996 c-2 -2 -42 -7 -89 -10 -47 -3 -94 -8 -105 -10 -11 -2 -47
-7 -80 -11 -32 -4 -68 -9 -80 -11 -11 -2 -47 -9 -80 -15 -339 -60 -812 -235
-1078 -398 -37 -22 -72 -41 -77 -41 -6 0 -10 -4 -10 -10 0 -5 -5 -10 -11 -10
-9 0 -131 -78 -185 -119 -12 -9 -32 -23 -44 -31 -50 -34 -230 -182 -305 -251
-280 -260 -477 -508 -687 -864 -34 -57 -158 -308 -158 -319 0 -3 -11 -29 -24
-58 -48 -107 -132 -361 -162 -488 -24 -106 -55 -261 -64 -325 -6 -44 -13 -93
-15 -110 -20 -134 -26 -507 -13 -695 13 -169 40 -341 84 -530 23 -100 85 -313
103 -355 5 -11 14 -36 21 -55 15 -44 18 -50 79 -192 251 -577 704 -1122 1226
-1475 217 -147 369 -229 650 -352 26 -12 111 -43 201 -74 97 -35 372 -108 454
-122 14 -2 52 -9 85 -14 33 -6 80 -13 105 -16 25 -4 59 -8 75 -10 170 -26 680
-25 810 0 11 3 43 7 70 10 336 39 744 164 1080 332 390 195 697 424 1000 745
529 559 869 1321 933 2093 13 163 5 612 -13 715 -2 14 -7 45 -10 70 -3 25 -7
56 -10 70 -3 14 -7 39 -10 55 -117 688 -463 1351 -970 1858 -230 229 -459 405
-744 569 -102 59 -351 180 -406 198 -22 7 -44 16 -50 20 -18 14 -283 100 -403
130 -117 29 -228 53 -312 65 -25 4 -53 9 -63 11 -10 2 -46 6 -80 10 -34 3 -75
8 -92 11 -39 5 -541 13 -546 9z"/>
</g>
</svg>
